<svg width="33" height="30" viewBox="0 0 33 30" fill="none" xmlns="http://www.w3.org/2000/svg">
<rect width="32.2642" height="30" rx="12.4528" fill="#00D09E"/>
<path d="M9.59847 13.0448H23.0414M10.1834 6.79199V10.0078M13.9611 6.79199V10.0078M18.6813 6.79199V10.0078M22.4591 6.79199V10.0078M8.08891 8.64382H24.5535C24.7473 8.64382 24.9331 8.72078 25.0701 8.85778C25.2071 8.99478 25.2841 9.18058 25.2841 9.37433V21.1443C25.2841 21.5412 25.1264 21.9219 24.8457 22.2026C24.565 22.4834 24.1842 22.641 23.7873 22.641H8.85518C8.45821 22.641 8.0775 22.4834 7.7968 22.2026C7.51609 21.9219 7.3584 21.5412 7.3584 21.1443V9.37433C7.3584 9.18058 7.43536 8.99478 7.57236 8.85778C7.70936 8.72078 7.89517 8.64382 8.08891 8.64382Z" stroke="#093030" stroke-width="1.27712" stroke-linecap="round" stroke-linejoin="round"/>
</svg>
