<svg width="105" height="98" viewBox="0 0 105 98" fill="none" xmlns="http://www.w3.org/2000/svg">
<rect width="105" height="97.6316" rx="25.7895" fill="#0068FF"/>
<path d="M72.1161 42.9475L69.5683 39.4879C65.7423 34.3761 62.0744 32 52.8118 32H52.1043C42.8603 32 39.1925 34.3761 35.3478 39.4879L33.0453 42.7797M33.0951 60.3141V62.5671C33.0951 62.8866 33.033 63.203 32.9128 63.4982C32.7926 63.7933 32.6163 64.0615 32.3942 64.2874C32.172 64.5133 31.9083 64.6926 31.618 64.8148C31.3277 64.9371 31.0167 65 30.7026 65H28.1239C27.8097 65 27.4987 64.9371 27.2084 64.8148C26.9182 64.6926 26.6542 64.5133 26.4321 64.2874C26.2099 64.0615 26.0339 63.7933 25.9137 63.4982C25.7934 63.203 25.7314 62.8866 25.7314 62.5671V55.8743M71.6163 60.3141V62.5671C71.6163 63.2107 71.8671 63.8281 72.3138 64.2841C72.7605 64.74 73.3666 64.9975 73.9995 65H76.5316C77.1645 64.9975 77.7706 64.74 78.2173 64.2841C78.6639 63.8281 78.9148 63.2107 78.9148 62.5671V55.8743M34.268 47.1274C34.268 47.1274 32.5178 51.9363 37.9264 52.7409M70.6295 47.1274C70.6295 47.1274 72.389 51.9363 66.971 52.7409M46.7515 52.7409H57.4198M47.7104 56.9819H56.461M33.5885 41.7315C33.5885 43.9372 24 43.9372 24 41.7315C24 39.5258 26.141 37.7177 28.7941 37.7177C31.4472 37.7177 33.5885 39.4879 33.5885 41.7315ZM71.4115 41.7315C71.4115 43.9372 81 43.9372 81 41.7315C81 39.5258 78.8588 37.7177 76.2056 37.7177C73.5525 37.7177 71.4115 39.4879 71.4115 41.7315ZM75.4238 45.2341C73.806 43.4722 71.5733 42.4254 69.2051 42.3184H35.4967C33.129 42.4274 30.8972 43.4738 29.2782 45.2341C26.653 47.9793 25.8431 51.7943 25.7686 55.5051C25.7153 56.4063 25.8917 57.3063 26.2807 58.1179C26.8299 59.1592 40.2444 62.0275 52.3464 62.0275C64.4483 62.0275 77.9279 59.0361 78.412 58.1179C78.7982 57.3056 78.9714 56.4055 78.9147 55.5051C78.8589 51.7943 78.049 48.0077 75.4238 45.2341Z" stroke="#F1FFF3" stroke-width="3" stroke-linecap="round" stroke-linejoin="round"/>
</svg>
