<svg width="87" height="81" viewBox="0 0 87 81" fill="none" xmlns="http://www.w3.org/2000/svg">
<rect width="87" height="80.8947" rx="33.5789" fill="#00D09E"/>
<path d="M19 46.9062L43.615 59.2317L68.23 46.9062M19 37.3209L42.8203 49.24C43.0609 49.3585 43.3257 49.4202 43.5941 49.4202C43.8625 49.4202 44.1273 49.3585 44.3679 49.24L68.2091 37.3M20.3699 28.6837L43.1549 40.1444C43.2981 40.2143 43.4555 40.2507 43.615 40.2507C43.7745 40.2507 43.9318 40.2143 44.0751 40.1444L66.8706 28.6837C66.9981 28.6192 67.1052 28.5209 67.18 28.3995C67.2549 28.2781 67.2945 28.1385 67.2945 27.996C67.2945 27.8536 67.2549 27.7139 67.18 27.5925C67.1052 27.4711 66.9981 27.3728 66.8706 27.3084L44.0751 15.8997C43.9318 15.8298 43.7745 15.7935 43.615 15.7935C43.4555 15.7935 43.2981 15.8298 43.1549 15.8997L20.3699 27.3605C20.2551 27.4289 20.16 27.5258 20.094 27.6418C20.0281 27.7577 19.9933 27.8888 19.9933 28.0221C19.9933 28.1554 20.0281 28.2864 20.094 28.4023C20.16 28.5183 20.2551 28.6152 20.3699 28.6837Z" stroke="#093030" stroke-width="3.86118" stroke-linecap="round" stroke-linejoin="round"/>
</svg>
