<svg width="105" height="98" viewBox="0 0 105 98" fill="none" xmlns="http://www.w3.org/2000/svg">
<rect width="105" height="97.6316" rx="25.7895" fill="#0068FF"/>
<path d="M53.0413 34.2881L54.5869 35.6063M58.2235 38.7078L61.9713 41.9041M65.9513 45.2984L67.2786 46.4305M75.9338 44.1448L51.5369 72.7512C51.2369 73.1029 50.7882 73.3028 50.2897 73.3072C49.7911 73.3116 49.2834 73.12 48.8784 72.7745L42.8326 67.6184C43.5075 66.827 43.7926 65.7593 43.6254 64.6501C43.4581 63.5408 42.8521 62.481 41.9407 61.7036C41.4895 61.3171 40.9764 61.0114 40.4309 60.8044C39.8854 60.5974 39.3184 60.4932 38.7619 60.4974C38.2054 60.5016 37.6706 60.6143 37.1882 60.829C36.7057 61.0438 36.285 61.3562 35.9502 61.7487L29.868 56.5615C29.463 56.2161 29.1936 55.745 29.1192 55.252C29.0449 54.759 29.1718 54.2846 29.4717 53.9329L53.8687 25.3265C54.1686 24.9748 54.6171 24.7746 55.1157 24.7702C55.6142 24.7658 56.1219 24.9575 56.527 25.3029L62.5728 30.4591C62.238 30.8516 61.9958 31.3165 61.8599 31.8268C61.724 32.3371 61.6972 32.8829 61.7809 33.4331C61.8646 33.9832 62.0572 34.5269 62.3477 35.0329C62.6383 35.5388 63.0208 35.9971 63.4738 36.3816C64.3852 37.1589 65.5274 37.59 66.6491 37.5801C67.7708 37.5702 68.7802 37.1201 69.4551 36.3287L75.5011 41.4851C75.7083 41.6545 75.8841 41.8583 76.0184 42.0847C76.1527 42.3111 76.2428 42.5555 76.2831 42.8034C76.3234 43.0512 76.3133 43.2976 76.2533 43.5279C76.1933 43.7583 76.0847 43.9681 75.9338 44.1448Z" stroke="#F1FFF3" stroke-width="3.625" stroke-linecap="round" stroke-linejoin="round"/>
</svg>
