<svg width="57" height="53" viewBox="0 0 57 53" fill="none" xmlns="http://www.w3.org/2000/svg">
<rect width="57" height="53" rx="22" fill="#6DB6FE"/>
<path d="M25.6098 25.5342C26.3629 28.0347 31.1228 35.2862 36.9069 36.7865M34.6475 39.5996C30.1286 38.1931 25.5602 34.7337 22.8985 28.8161C19.7353 21.7835 26.9654 18.9703 29.6768 25.0654C30.7196 27.4096 32.3881 29.9882 37.3588 32.5669C42.3296 35.1455 45.4928 27.4097 40.9739 25.0655C34.3943 21.6522 32.84 11.8439 23.3504 13.8131C10.0202 16.5793 12.957 34.9112 19.7353 40.0685M39.6183 28.8161C31.4843 26.003 31.6812 14.3048 22.8985 18.0326C12.957 22.2522 20.1872 39.1308 29.2249 41.475M30.5806 11C35.5513 11.4688 36.907 16.6262 42.3296 21.3146" stroke="#F1FFF3" stroke-width="2" stroke-linecap="round" stroke-linejoin="round"/>
</svg>
