<svg width="105" height="98" viewBox="0 0 105 98" fill="none" xmlns="http://www.w3.org/2000/svg">
<rect width="105" height="97.6316" rx="25.7895" fill="#0068FF"/>
<path d="M38.9515 23.9071L37 41.6478C37.0058 43.061 37.4302 44.4408 38.2195 45.613C39.0089 46.7852 40.1279 47.6973 41.4352 48.2341L40.0822 72.3172C40.0553 73.3663 40.4451 74.3834 41.1661 75.146C41.8871 75.9085 42.881 76.3546 43.93 76.3865C44.979 76.3546 45.9726 75.9085 46.6936 75.146C47.4146 74.3834 47.8043 73.3663 47.7775 72.3172L46.8571 48.2341C48.1652 47.6985 49.2851 46.7868 50.0746 45.6143C50.8642 44.4418 51.2879 43.0614 51.2923 41.6478L49.7068 23.9071M44.1294 24.5059V42.8232M66.8154 47.9015C66.1757 47.9871 65.5918 48.311 65.1806 48.8085C64.7694 49.306 64.5613 49.9404 64.5978 50.5847L65.8176 72.3283C65.8444 73.3774 65.4547 74.3945 64.7337 75.1571C64.0126 75.9196 63.0188 76.3657 61.9698 76.3976C60.9208 76.3657 59.9272 75.9196 59.2062 75.1571C58.4852 74.3945 58.0954 73.3774 58.1223 72.3283L58.9761 49.5647C58.9924 49.1447 58.9256 48.7256 58.779 48.3316C58.6325 47.9377 58.4091 47.5767 58.1223 47.2694V22C58.1223 22 70.8181 22.5322 66.7821 47.9015H66.8154Z" stroke="#F1FFF3" stroke-width="3.32639" stroke-linecap="round" stroke-linejoin="round"/>
</svg>
