<svg width="105" height="98" viewBox="0 0 105 98" fill="none" xmlns="http://www.w3.org/2000/svg">
<rect width="105" height="97.6316" rx="25.7895" fill="#0068FF"/>
<path d="M71.6043 51.1557V70.0574C71.6043 70.9276 71.2586 71.7621 70.6433 72.3774C70.028 72.9927 69.1935 73.3384 68.3233 73.3384H36.4546C35.5844 73.3384 34.7499 72.9927 34.1346 72.3774C33.5193 71.7621 33.1737 70.9276 33.1737 70.0574V51.1557M52.389 39.1657C52.389 39.1657 64.3429 38.4781 67.3103 36.1621C68.7268 35.053 69.6472 33.4287 69.8709 31.6435C70.0946 29.8584 69.6035 28.0572 68.5044 26.6328C67.3946 25.2102 65.7665 24.2847 63.9763 24.0587C62.1862 23.8326 60.3795 24.3244 58.9508 25.4266C56.0076 27.7426 52.389 39.1657 52.389 39.1657ZM52.389 39.1657C52.389 39.1657 40.4349 38.4781 37.4676 36.1621C36.0502 35.0531 35.13 33.4276 34.9085 31.6416C34.6869 29.8556 35.182 28.0545 36.2855 26.6328C37.3934 25.2074 39.0216 24.2799 40.8127 24.0537C42.6038 23.8276 44.4117 24.3213 45.8391 25.4266C48.7703 27.7425 52.389 39.1657 52.389 39.1657ZM52.389 39.1657V73.3384M32.0397 39.1657H72.7503C74.4291 39.1657 75.79 40.5266 75.79 42.2054V46.7167C75.79 48.3955 74.4291 49.7564 72.7503 49.7564H32.0397C30.3609 49.7564 29 48.3955 29 46.7167V42.2054C29 40.5266 30.3609 39.1657 32.0397 39.1657Z" stroke="#F1FFF3" stroke-width="3.61872" stroke-linecap="round" stroke-linejoin="round"/>
</svg>
