<svg width="87" height="81" viewBox="0 0 87 81" fill="none" xmlns="http://www.w3.org/2000/svg">
<rect width="87" height="80.8947" rx="33.5789" fill="#00D09E"/>
<path d="M64.1969 65.6756H23.2395C22.6456 65.6756 22.0759 65.4396 21.6559 65.0196C21.236 64.5997 21 64.03 21 63.4361V31.0698C20.9987 30.7608 21.0625 30.4549 21.1873 30.1722C21.312 29.8894 21.4949 29.6361 21.724 29.4288L42.1979 10.5959C42.6101 10.2139 43.1514 10.0017 43.7134 10.0017C44.2754 10.0017 44.8167 10.2139 45.2289 10.5959L65.7125 29.4288C65.9397 29.6376 66.1213 29.8912 66.2459 30.1736C66.3705 30.456 66.4354 30.7611 66.4364 31.0698V63.4361C66.4364 64.03 66.2005 64.5997 65.7805 65.0196C65.3605 65.4396 64.7909 65.6756 64.1969 65.6756ZM38.4525 49.8351H48.9936C49.2116 49.8364 49.4272 49.8806 49.6282 49.9652C49.8291 50.0498 50.0115 50.1731 50.1647 50.3282C50.318 50.4833 50.4393 50.667 50.5215 50.8689C50.6038 51.0709 50.6455 51.287 50.6442 51.5051V65.6756H36.7922V51.5051C36.791 51.2862 36.833 51.0693 36.9158 50.8667C36.9987 50.6642 37.1208 50.48 37.2751 50.3248C37.4294 50.1696 37.6129 50.0464 37.8149 49.9624C38.017 49.8784 38.2337 49.8351 38.4525 49.8351Z" stroke="#093030" stroke-width="3.86118" stroke-linecap="round" stroke-linejoin="round"/>
</svg>
