<svg width="57" height="53" viewBox="0 0 57 53" fill="none" xmlns="http://www.w3.org/2000/svg">
<rect width="57" height="53" rx="22" fill="#6DB6FE"/>
<path d="M33.6929 26.2071L26.3255 30.9353C26.1855 31.0252 26.007 31.029 25.8632 30.9453L16.6261 25.5652C16.3399 25.3985 16.3311 24.9882 16.6099 24.8094L31.6746 15.1462C31.8145 15.0565 31.993 15.0526 32.1367 15.1362L41.3737 20.5121C41.66 20.6787 41.6689 21.0891 41.3901 21.268L37.0408 24.0586M33.6974 29.9623L26.3254 34.6907C26.1855 34.7805 26.007 34.7843 25.8633 34.7007L16.626 29.3246C16.3398 29.1581 16.3307 28.7479 16.6094 28.5689L19.0704 26.9879M38.9296 22.849L41.3734 24.2716C41.6598 24.4383 41.6686 24.8488 41.3896 25.0276L37.0005 27.841M39.1086 26.4869L41.4028 27.9087C41.6798 28.0804 41.683 28.4822 41.4087 28.6582L26.3255 38.3375C26.1855 38.4273 26.007 38.4312 25.8632 38.3475L16.6261 32.9674C16.3399 32.8007 16.3311 32.3904 16.6099 32.2116L18.9764 30.6935M27.1418 18.341L36.7804 23.953C36.9167 24.0324 37.0005 24.1782 37.0005 24.336V31.2414C37.0005 31.3922 36.9238 31.5327 36.7969 31.6142L34.3799 33.1664C34.085 33.3558 33.6974 33.1441 33.6974 32.7936V26.4617C33.6974 26.3041 33.6136 26.1583 33.4774 26.0789L24.2299 20.6904C23.9438 20.5238 23.935 20.1137 24.2135 19.9348L26.6794 18.3511C26.8195 18.2612 26.998 18.2573 27.1418 18.341Z" stroke="#F1FFF3" stroke-width="1.77237" stroke-linecap="round" stroke-linejoin="round"/>
</svg>
