<svg width="57" height="53" viewBox="0 0 57 53" fill="none" xmlns="http://www.w3.org/2000/svg">
<rect width="57" height="53" rx="22" fill="#3299FF"/>
<path d="M20.4305 24.0735C20.3398 23.5864 20.2604 23.0823 20.1981 22.5668C19.5807 17.5311 20.6796 13.2544 22.6509 13.0108C24.6221 12.7673 26.7293 16.6588 27.3467 21.6945C27.4147 22.2609 27.4657 22.8557 27.494 23.3938M20.7703 15.7694L23.2343 16.6984M20.0283 19.0435L23.0588 20.3576M22.6396 37.1358H34.1781M28.5419 24.2774C28.1376 23.8924 27.8156 23.4294 27.5956 22.9162C27.3755 22.4031 27.2619 21.8506 27.2617 21.2923C27.2617 20.2011 27.6949 19.1545 28.466 18.3824C29.237 17.6103 30.2829 17.1757 31.3741 17.1742C32.4663 17.1742 33.5137 17.6081 34.286 18.3804C35.0583 19.1527 35.4922 20.2001 35.4922 21.2923C35.4931 21.7531 35.4165 22.2107 35.2657 22.6461M31.3741 18.5393C31.3741 18.5393 31.2494 15.9563 33.198 14.7102M20.2776 24.2774L21.4104 22.7764C21.4924 22.6695 21.5979 22.5828 21.7187 22.5232C21.8395 22.4636 21.9724 22.4326 22.1072 22.4326C22.2419 22.4326 22.3748 22.4636 22.4956 22.5232C22.6164 22.5828 22.7219 22.6695 22.8039 22.7764L23.8517 24.1472C23.8924 24.2011 23.945 24.2449 24.0055 24.275C24.066 24.3052 24.1325 24.3209 24.2001 24.3209C24.2676 24.3209 24.3343 24.3052 24.3948 24.275C24.4552 24.2449 24.5078 24.2011 24.5484 24.1472L25.5964 22.7764C25.6784 22.6695 25.7839 22.5828 25.9047 22.5232C26.0255 22.4636 26.1584 22.4326 26.2931 22.4326C26.4279 22.4326 26.5608 22.4636 26.6816 22.5232C26.8024 22.5828 26.9079 22.6695 26.9899 22.7764C26.9899 22.7764 27.5563 23.5297 27.9868 24.1018C28.0333 24.1629 28.0934 24.2124 28.1622 24.2465C28.2309 24.2805 28.3065 24.2982 28.3833 24.2982C28.46 24.2982 28.5358 24.2805 28.6046 24.2465C28.6733 24.2124 28.7334 24.1629 28.7799 24.1018L29.7994 22.7877C29.8808 22.6808 29.9858 22.5943 30.1061 22.5346C30.2265 22.475 30.359 22.444 30.4934 22.444C30.6277 22.444 30.7602 22.475 30.8806 22.5346C31.0009 22.5943 31.1059 22.6808 31.1873 22.7877L32.2351 24.1585C32.2764 24.2125 32.3295 24.2563 32.3904 24.2864C32.4514 24.3166 32.5184 24.3322 32.5864 24.3322C32.6544 24.3322 32.7213 24.3166 32.7822 24.2864C32.8431 24.2563 32.8963 24.2125 32.9375 24.1585L33.9855 22.7877C34.0669 22.6808 34.1719 22.5943 34.2922 22.5346C34.4126 22.475 34.545 22.444 34.6793 22.444C34.8136 22.444 34.9462 22.475 35.0665 22.5346C35.1869 22.5943 35.2919 22.6808 35.3733 22.7877L36.5062 24.2888C36.6661 24.5033 36.7534 24.7632 36.7554 25.0308V39.005C36.7554 39.1932 36.7183 39.3796 36.6463 39.5535C36.5742 39.7273 36.4687 39.8853 36.3357 40.0184C36.2026 40.1515 36.0446 40.257 35.8707 40.329C35.6968 40.401 35.5104 40.4381 35.3222 40.4381H21.4275C21.0484 40.4366 20.6852 40.285 20.4176 40.0164C20.1501 39.7478 20 39.3841 20 39.005V25.0195C20.0072 24.7481 20.1049 24.4869 20.2776 24.2774Z" stroke="#F1FFF3" stroke-width="1.69934" stroke-linecap="round" stroke-linejoin="round"/>
</svg>
