<svg width="57" height="53" viewBox="0 0 57 53" fill="none" xmlns="http://www.w3.org/2000/svg">
<rect width="57" height="53" rx="22" fill="#0068FF"/>
<g clip-path="url(#clip0_7102_2857)">
<path d="M26.8383 31.894H32.5027C33.0235 31.8925 33.5226 31.6849 33.8909 31.3166C34.2592 30.9483 34.4668 30.4492 34.4683 29.9284C34.4653 29.4085 34.2571 28.9109 33.8889 28.5439C33.5208 28.1768 33.0226 27.97 32.5027 27.9685H28.9114C28.1055 27.959 27.3056 27.8291 26.538 27.5833C25.1162 27.2774 22.8165 27.2604 21.7629 29.9284H19.4971M34.4399 29.9284L39.5379 26.9262C39.9828 26.6567 40.5165 26.5745 41.0219 26.6976C41.5273 26.8208 41.9632 27.1393 42.2342 27.5833C42.5028 28.0279 42.5851 28.5605 42.4631 29.0654C42.3411 29.5703 42.0248 30.0066 41.5828 30.2796L34.9158 35.2983C33.7272 36.1928 32.2796 36.676 30.792 36.6747H19.4631M32.5481 21.0409L31.1602 22.4343C31.1517 22.4431 31.1416 22.45 31.1304 22.4548C31.1192 22.4595 31.1072 22.4619 31.095 22.4619C31.0829 22.4619 31.071 22.4595 31.0598 22.4548C31.0486 22.45 31.0383 22.4431 31.0299 22.4343L30.1746 21.0352H26.4361C26.1073 21.8906 25.5269 22.6262 24.7715 23.145C24.016 23.6638 23.1212 23.9414 22.2048 23.9411C21.0029 23.9411 19.8502 23.4636 19.0004 22.6138C18.1506 21.764 17.6732 20.6113 17.6732 19.4095C17.6732 18.2077 18.1506 17.055 19.0004 16.2052C19.8502 15.3554 21.0029 14.8779 22.2048 14.8779C23.1205 14.8772 24.0149 15.1539 24.7702 15.6717C25.5256 16.1894 26.1064 16.9238 26.4361 17.7781H34.7685L36.8983 19.5851L34.0661 22.5136L32.5481 21.0692M19.4745 28.9258C19.4745 28.8447 19.4422 28.7668 19.3848 28.7095C19.3275 28.6521 19.2497 28.6199 19.1686 28.6199H16.1834C16.1023 28.6199 16.0244 28.6521 15.9671 28.7095C15.9097 28.7668 15.8775 28.8447 15.8775 28.9258V37.666C15.8775 37.7472 15.9097 37.825 15.9671 37.8823C16.0244 37.9397 16.1023 37.9719 16.1834 37.9719H19.1686C19.2497 37.9719 19.3275 37.9397 19.3848 37.8823C19.4422 37.825 19.4745 37.7472 19.4745 37.666V28.9258Z" stroke="#F1FFF3" stroke-width="1.69934" stroke-linecap="round" stroke-linejoin="round"/>
<path d="M20.987 20.344C21.6627 20.344 22.2105 19.7962 22.2105 19.1205C22.2105 18.4448 21.6627 17.897 20.987 17.897C20.3113 17.897 19.7635 18.4448 19.7635 19.1205C19.7635 19.7962 20.3113 20.344 20.987 20.344Z" fill="#F1FFF3"/>
</g>
<defs>
<clipPath id="clip0_7102_2857">
<rect width="28.3733" height="24.8216" fill="white" transform="translate(15 14)"/>
</clipPath>
</defs>
</svg>
