<svg width="105" height="98" viewBox="0 0 105 98" fill="none" xmlns="http://www.w3.org/2000/svg">
<rect width="105" height="97.6316" rx="25.7895" fill="#6DB6FE"/>
<path d="M41.0257 45.525L58.2523 52.255M60.8198 48.217C63.3781 48.6752 65.7109 49.9724 67.4498 51.9039C69.1888 53.8354 70.2348 56.2911 70.4228 58.8832C70.6009 61.5109 69.8887 64.1219 68.4009 66.2951C66.9131 68.4683 64.7365 70.0769 62.2224 70.8615C60.6011 71.3669 58.8886 71.5103 57.2059 71.2817C55.5232 71.053 53.9111 70.4578 52.4835 69.5381M68.7601 54.3136L53.3433 64.7988M58.3788 26.6379C63.1344 28.4987 65.4803 33.8649 63.6183 38.6235L52.861 66.1153C50.999 70.8739 45.6342 73.223 40.8785 71.3621C36.1228 69.5013 33.777 64.1351 35.639 59.3765L46.3963 31.8847C48.2583 27.1261 53.6231 24.777 58.3788 26.6379Z" stroke="#F1FFF3" stroke-width="3.39328" stroke-linecap="round" stroke-linejoin="round"/>
</svg>
