<svg width="105" height="98" viewBox="0 0 105 98" fill="none" xmlns="http://www.w3.org/2000/svg">
<rect width="105" height="97.6316" rx="25.7895" fill="#0068FF"/>
<path d="M77.4897 43.9073L74.5832 44.3361C74.547 44.339 74.511 44.3285 74.4822 44.3066C74.4534 44.2847 74.4338 44.253 74.4271 44.2176L74.6564 41.7994L71.6399 39.5546L70.1911 38.4687C69.0347 39.1936 67.6845 39.5521 66.319 39.4967C64.9535 39.4413 63.637 38.9746 62.5438 38.1584C61.1048 37.0838 60.1528 35.4849 59.8967 33.7127C59.6406 31.9404 60.1012 30.1394 61.1776 28.7047C61.7115 27.9943 62.3811 27.3957 63.1478 26.9432C63.9145 26.4907 64.7634 26.1932 65.6458 26.0678C66.5283 25.9423 67.4269 25.9914 68.2903 26.2121C69.1536 26.4329 69.9647 26.8209 70.6771 27.3542C71.7695 28.1689 72.5888 29.2934 73.0273 30.58C73.4659 31.8665 73.5032 33.255 73.1343 34.5631L83.0831 41.991L84 46.0335L78.0308 47.0099L77.5173 43.9347M34 54.7389L49.4959 40.5675C49.8088 40.2821 50.2177 40.1238 50.6421 40.1238C51.0665 40.1238 51.4754 40.2821 51.7883 40.5675L67.2752 54.7389M37.8969 51.1801V41.8268H42.8483M65.5238 30.9769C66.0097 33.9517 64.3318 37.9121 60.9391 41.0146C57.7574 43.9621 53.9338 45.3582 51.0363 44.9202M47.4053 42.4746C45.7824 39.4633 47.4054 34.5358 51.4124 30.8127C55.0801 27.3999 59.6647 26.0676 62.608 27.2538M62.0486 70.9909H39.2264C38.8957 70.9909 38.5785 70.8601 38.3446 70.6274C38.1108 70.3947 37.9793 70.079 37.9793 69.7499V51.8006C37.9795 51.629 38.0155 51.4593 38.085 51.3022C38.1544 51.1452 38.2559 51.0042 38.3829 50.8881L49.7986 40.4489C50.0287 40.2385 50.3297 40.1218 50.6421 40.1218C50.9545 40.1218 51.2557 40.2385 51.4858 40.4489L62.8923 50.8881C63.0193 51.0042 63.1206 51.1452 63.19 51.3022C63.2595 51.4593 63.2955 51.629 63.2957 51.8006V69.7499C63.2957 69.9128 63.2635 70.0742 63.2008 70.2248C63.1381 70.3753 63.0462 70.5122 62.9304 70.6274C62.8146 70.7426 62.6772 70.834 62.5259 70.8964C62.3746 70.9588 62.2124 70.9909 62.0486 70.9909ZM48.3498 62.2124H52.9345C53.3527 62.2124 53.7539 62.3778 54.0496 62.6721C54.3454 62.9665 54.5116 63.3657 54.5116 63.782V71H46.7819V63.7728C46.7843 63.3597 46.9503 62.9642 47.2438 62.6721C47.5373 62.38 47.9347 62.2148 48.3498 62.2124Z" stroke="#F1FFF3" stroke-width="3" stroke-linecap="round" stroke-linejoin="round"/>
</svg>
