<svg width="43" height="53" viewBox="0 0 43 53" fill="none" xmlns="http://www.w3.org/2000/svg">
<path d="M3.29506 35.0994C2.33991 37.5187 1.87767 40.1044 1.93549 42.7047C1.93549 53.487 40.9623 53.487 40.9816 42.7047C41.0394 40.1044 40.5773 37.5187 39.6221 35.0994C38.667 32.6802 37.2381 30.4761 35.4195 28.6166C33.6009 26.7571 31.4291 25.2796 29.0317 24.2709C26.6343 23.2622 24.0595 22.7426 21.4585 22.7426C18.8576 22.7426 16.2828 23.2622 13.8854 24.2709C11.4879 25.2796 9.31621 26.7571 7.4976 28.6166C5.67899 30.4761 4.2502 32.6802 3.29506 35.0994Z" stroke="#093030" stroke-width="3.86118" stroke-linecap="round" stroke-linejoin="round"/>
<path d="M21.4441 17.607C25.773 17.607 29.2823 14.0978 29.2823 9.76885C29.2823 5.43994 25.773 1.93066 21.4441 1.93066C17.1152 1.93066 13.6059 5.43994 13.6059 9.76885C13.6059 14.0978 17.1152 17.607 21.4441 17.607Z" stroke="#093030" stroke-width="3.86118" stroke-linecap="round" stroke-linejoin="round"/>
</svg>
