<svg width="105" height="98" viewBox="0 0 105 98" fill="none" xmlns="http://www.w3.org/2000/svg">
<rect width="105" height="97.6316" rx="25.7895" fill="#0068FF"/>
<path d="M52.4501 33.6V51.43M43.3501 65.17V68.51C43.3501 69.1783 43.0847 69.8193 42.6121 70.2919C42.1395 70.7645 41.4984 71.03 40.8301 71.03H38.1401C37.4718 71.03 36.8307 70.7645 36.3582 70.2919C35.8856 69.8193 35.6201 69.1783 35.6201 68.51V61.51M61.5801 65.17V68.51C61.5801 69.1783 61.8455 69.8193 62.3181 70.2919C62.7907 70.7645 63.4318 71.03 64.1001 71.03H66.79C67.4584 71.03 68.0994 70.7645 68.572 70.2919C69.0446 69.8193 69.3101 69.1783 69.3101 68.51V61.51M48.7701 60.81H56.1201M39.7801 55.45C39.7801 55.45 39.5001 59.09 43.5201 58.61M65.1101 55.45C65.1101 55.45 65.3901 59.09 61.3701 58.61M69.3501 36.54H72.04C72.4204 36.54 72.7972 36.6151 73.1484 36.761C73.4997 36.9068 73.8187 37.1206 74.0872 37.39C74.3557 37.6594 74.5682 37.9792 74.7129 38.331C74.8575 38.6827 74.9315 39.0597 74.9302 39.44V43.98M35.5801 36.54H32.8902C32.5098 36.54 32.133 36.6151 31.7818 36.761C31.4305 36.9068 31.1115 37.1206 30.843 37.39C30.5745 37.6594 30.3619 37.9792 30.2173 38.331C30.0727 38.6827 29.9987 39.0597 30 39.44V43.98M39.4201 26H65.4801C67.6009 26 69.3201 27.7192 69.3201 29.84V61.34C69.3201 63.4608 67.6009 65.18 65.4801 65.18H39.4201C37.2993 65.18 35.5801 63.4608 35.5801 61.34V29.84C35.5801 27.7192 37.2993 26 39.4201 26ZM39.2901 33.6H65.6001C66.5841 33.6 67.5277 33.9909 68.2235 34.6866C68.9192 35.3824 69.3101 36.326 69.3101 37.31V51.43H35.5801V37.31C35.5801 36.326 35.971 35.3824 36.6667 34.6866C37.3625 33.9909 38.3061 33.6 39.2901 33.6Z" stroke="#F1FFF3" stroke-width="3" stroke-linecap="round" stroke-linejoin="round"/>
</svg>
