<svg width="105" height="98" viewBox="0 0 105 98" fill="none" xmlns="http://www.w3.org/2000/svg">
<rect width="105" height="97.6316" rx="25.7895" fill="#6DB6FE"/>
<path d="M49.3074 52.25L38.7774 63.6C37.9774 64.6 38.5475 66.35 39.6875 66.35H42.8374C43.1478 66.352 43.4537 66.2764 43.7273 66.13L62.9375 54.75M46.4274 40.17L41.2673 33.39C40.6673 32.39 41.2074 31.01 42.1774 31H44.6774C45.1391 31.0065 45.5843 31.1726 45.9375 31.47L62.1174 43.59M62.9374 54.79C62.9374 54.79 82.0772 55.9999 84.4972 53.3199C85.5472 52.1599 84.7672 50.2099 83.9972 49.3199C81.9972 47.1199 79.9072 44.8599 76.9972 44.0699C72.2072 42.7699 66.9974 43.37 62.1474 43.5L32.4574 44.85L23.3473 34.85C22.6885 34.3586 21.8891 34.0921 21.0673 34.09C18.5173 34.09 18.9072 34.91 19.2472 35.62L25.0773 47.78C24.996 48.0321 24.8922 48.2764 24.7672 48.5099C24.5698 49.0611 24.525 49.6554 24.6374 50.23C25.0674 52.05 27.0173 52.29 28.5873 52.42C30.5873 52.57 32.5874 52.78 34.6474 52.94C38.9574 53.27 43.2573 53.59 47.5473 54.13M81.7173 46.97C81.7173 46.97 81.1675 48.9 76.1975 48.7" stroke="#F1FFF3" stroke-width="3" stroke-linecap="round" stroke-linejoin="round"/>
</svg>
