<svg width="105" height="98" viewBox="0 0 105 98" fill="none" xmlns="http://www.w3.org/2000/svg">
<rect width="105" height="97.6316" rx="25.7895" fill="#6DB6FE"/>
<path d="M48.4199 69.75C46.4868 70.595 44.3996 71.0308 42.2898 71.03C38.2337 71.0274 34.3447 69.4142 31.4775 66.5452C28.6104 63.6762 27 59.7861 27 55.73C27 51.6739 28.6104 47.7838 31.4775 44.9148C34.3447 42.0458 38.2337 40.4326 42.2898 40.43C44.299 40.43 46.2887 40.8258 48.145 41.5947C50.0013 42.3636 51.6879 43.4905 53.1086 44.9113C54.5294 46.332 55.6564 48.0187 56.4253 49.8749C57.1942 51.7312 57.5898 53.7208 57.5898 55.73C57.594 59.6978 56.0514 63.511 53.2898 66.36M43.46 65.08C43.0719 65.1287 42.6809 65.1521 42.2898 65.15C39.7915 65.15 37.3955 64.1575 35.6289 62.3909C33.8623 60.6243 32.8699 58.2283 32.8699 55.73C32.8699 53.2316 33.8623 50.8356 35.6289 49.069C37.3955 47.3024 39.7915 46.31 42.2898 46.31C44.7881 46.31 47.1843 47.3024 48.9509 49.069C50.7175 50.8356 51.71 53.2316 51.71 55.73C51.7095 57.0512 51.4304 58.3575 50.8911 59.5637C50.3518 60.7698 49.5642 61.8487 48.5798 62.73M48.4199 41.71C51.1429 39.9208 54.3317 38.9715 57.5899 38.98M57.5899 38.98C62.0322 38.98 66.2926 40.7447 69.4338 43.886C72.5751 47.0272 74.3399 51.2876 74.3399 55.73C74.3399 60.1724 72.5751 64.4328 69.4338 67.574C66.2926 70.7153 62.0322 72.48 57.5899 72.48C53.1561 72.4667 48.9085 70.6962 45.7781 67.5564C42.6477 64.4166 40.8899 60.1637 40.8899 55.73C40.8864 52.578 41.7739 49.4893 43.45 46.82M57.5899 38.98L48.5899 28.43L50.5499 26M57.5899 38.98L66.5899 28.43L64.6399 26H50.5499M53.2898 45.1C54.656 44.5477 56.1164 44.2659 57.5899 44.27C59.0948 44.27 60.585 44.5664 61.9754 45.1423C63.3658 45.7182 64.6292 46.5623 65.6934 47.6265C66.7576 48.6907 67.6016 49.954 68.1775 51.3444C68.7535 52.7348 69.0499 54.225 69.0499 55.73C69.0499 57.2349 68.7535 58.7251 68.1775 60.1155C67.6016 61.5059 66.7576 62.7693 65.6934 63.8334C64.6292 64.8976 63.3658 65.7418 61.9754 66.3177C60.585 66.8936 59.0948 67.19 57.5899 67.19C54.5505 67.19 51.6355 65.9826 49.4864 63.8334C47.3372 61.6843 46.1299 58.7693 46.1299 55.73C46.123 53.3321 46.8755 50.9936 48.2798 49.05M50.5499 26L62.1899 33.58M75.5999 36.24V41.72M78.3399 38.98H72.8599M41.4699 26V31.48M44.2099 28.74H38.7299" stroke="#F1FFF3" stroke-width="3" stroke-linecap="round" stroke-linejoin="round"/>
</svg>
